<mxfile host="app.diagrams.net" modified="2023-12-22T22:34:06.562Z" agent="Mozilla/5.0 (Windows NT 10.0; Win64; x64) AppleWebKit/537.36 (KHTML, like Gecko) Chrome/120.0.0.0 Safari/537.36 Edg/120.0.0.0" etag="1bYJJre_pEAZkHrIp-Qm" version="22.1.11" type="device">
  <diagram name="Страница — 1" id="H-z1XXLGGEfeTgjahPZa">
    <mxGraphModel dx="1556" dy="919" grid="1" gridSize="10" guides="1" tooltips="1" connect="1" arrows="1" fold="1" page="1" pageScale="1" pageWidth="827" pageHeight="1169" math="0" shadow="0">
      <root>
        <mxCell id="0" />
        <mxCell id="1" parent="0" />
        <mxCell id="7Yaj7pcYdiq3xZZWTGNQ-3" style="edgeStyle=orthogonalEdgeStyle;rounded=0;orthogonalLoop=1;jettySize=auto;html=1;" edge="1" parent="1" source="7Yaj7pcYdiq3xZZWTGNQ-1" target="7Yaj7pcYdiq3xZZWTGNQ-2">
          <mxGeometry relative="1" as="geometry" />
        </mxCell>
        <mxCell id="7Yaj7pcYdiq3xZZWTGNQ-1" value="Начало&lt;br&gt;main" style="ellipse;whiteSpace=wrap;html=1;" vertex="1" parent="1">
          <mxGeometry x="340" y="10" width="120" height="80" as="geometry" />
        </mxCell>
        <mxCell id="7Yaj7pcYdiq3xZZWTGNQ-5" style="edgeStyle=orthogonalEdgeStyle;rounded=0;orthogonalLoop=1;jettySize=auto;html=1;entryX=0.5;entryY=0;entryDx=0;entryDy=0;" edge="1" parent="1" source="7Yaj7pcYdiq3xZZWTGNQ-2" target="7Yaj7pcYdiq3xZZWTGNQ-4">
          <mxGeometry relative="1" as="geometry" />
        </mxCell>
        <mxCell id="7Yaj7pcYdiq3xZZWTGNQ-2" value="Создать userService" style="rounded=0;whiteSpace=wrap;html=1;" vertex="1" parent="1">
          <mxGeometry x="340" y="110" width="120" height="60" as="geometry" />
        </mxCell>
        <mxCell id="7Yaj7pcYdiq3xZZWTGNQ-7" style="edgeStyle=orthogonalEdgeStyle;rounded=0;orthogonalLoop=1;jettySize=auto;html=1;entryX=0.5;entryY=0;entryDx=0;entryDy=0;" edge="1" parent="1" source="7Yaj7pcYdiq3xZZWTGNQ-4" target="7Yaj7pcYdiq3xZZWTGNQ-6">
          <mxGeometry relative="1" as="geometry" />
        </mxCell>
        <mxCell id="7Yaj7pcYdiq3xZZWTGNQ-4" value="Создать UI" style="rounded=0;whiteSpace=wrap;html=1;" vertex="1" parent="1">
          <mxGeometry x="340" y="190" width="120" height="60" as="geometry" />
        </mxCell>
        <mxCell id="7Yaj7pcYdiq3xZZWTGNQ-9" style="edgeStyle=orthogonalEdgeStyle;rounded=0;orthogonalLoop=1;jettySize=auto;html=1;entryX=0.5;entryY=0;entryDx=0;entryDy=0;" edge="1" parent="1" source="7Yaj7pcYdiq3xZZWTGNQ-6" target="7Yaj7pcYdiq3xZZWTGNQ-8">
          <mxGeometry relative="1" as="geometry" />
        </mxCell>
        <mxCell id="7Yaj7pcYdiq3xZZWTGNQ-6" value="Запустить UI" style="rounded=0;whiteSpace=wrap;html=1;" vertex="1" parent="1">
          <mxGeometry x="340" y="270" width="120" height="60" as="geometry" />
        </mxCell>
        <mxCell id="7Yaj7pcYdiq3xZZWTGNQ-11" style="edgeStyle=orthogonalEdgeStyle;rounded=0;orthogonalLoop=1;jettySize=auto;html=1;entryX=0.5;entryY=0;entryDx=0;entryDy=0;" edge="1" parent="1" source="7Yaj7pcYdiq3xZZWTGNQ-8" target="7Yaj7pcYdiq3xZZWTGNQ-10">
          <mxGeometry relative="1" as="geometry" />
        </mxCell>
        <mxCell id="7Yaj7pcYdiq3xZZWTGNQ-8" value="Очистить userService" style="rounded=0;whiteSpace=wrap;html=1;" vertex="1" parent="1">
          <mxGeometry x="340" y="350" width="120" height="60" as="geometry" />
        </mxCell>
        <mxCell id="7Yaj7pcYdiq3xZZWTGNQ-10" value="Конец" style="ellipse;whiteSpace=wrap;html=1;" vertex="1" parent="1">
          <mxGeometry x="340" y="430" width="120" height="80" as="geometry" />
        </mxCell>
      </root>
    </mxGraphModel>
  </diagram>
</mxfile>
